<svg xmlns="http://www.w3.org/2000/svg" width="228" height="41" fill="none" viewBox="0 0 228 41">
  <path fill="#000" d="M23.56 30c-.78 0-1.38-.21-1.8-.63-.42-.42-.63-1.02-.63-1.8V11.28c0-.78.21-1.38.63-1.8.42-.42 1.02-.63 1.8-.63h7.26c1.5 0 2.78.22 3.84.66 1.06.44 1.86 1.07 2.4 1.89.56.82.84 1.8.84 2.94 0 1.26-.36 2.33-1.08 3.21-.72.88-1.71 1.47-2.97 1.77v-.48c1.46.26 2.59.84 3.39 1.74.82.88 1.23 2.03 1.23 3.45 0 1.88-.65 3.35-1.95 4.41-1.3 1.04-3.09 1.56-5.37 1.56h-7.59Zm2.01-3.45h4.95c1.2 0 2.08-.23 2.64-.69.56-.48.84-1.18.84-2.1 0-.92-.28-1.61-.84-2.07-.56-.46-1.44-.69-2.64-.69h-4.95v5.55Zm0-9h4.44c1.16 0 2.02-.22 2.58-.66.56-.44.84-1.1.84-1.98 0-.86-.28-1.51-.84-1.95-.56-.44-1.42-.66-2.58-.66h-4.44v5.25ZM44.42 30c-.78 0-1.38-.21-1.8-.63-.42-.42-.63-1.02-.63-1.8V11.28c0-.78.21-1.38.63-1.8.42-.42 1.02-.63 1.8-.63h10.47c.6 0 1.05.16 1.35.48.32.3.48.74.48 1.32 0 .6-.16 1.06-.48 1.38-.3.3-.75.45-1.35.45h-8.46v4.95h7.77c.62 0 1.08.16 1.38.48.32.3.48.75.48 1.35 0 .6-.16 1.06-.48 1.38-.3.3-.76.45-1.38.45h-7.77v5.28h8.46c.6 0 1.05.16 1.35.48.32.3.48.74.48 1.32 0 .6-.16 1.06-.48 1.38-.3.3-.75.45-1.35.45H44.42Zm15.982.27c-.56 0-1.02-.13-1.38-.39a1.77 1.77 0 0 1-.66-1.05c-.08-.44.01-.93.27-1.47l7.68-16.83c.32-.68.7-1.17 1.14-1.47.44-.32.95-.48 1.53-.48.58 0 1.09.16 1.53.48.44.3.81.79 1.11 1.47l7.74 16.83c.26.54.35 1.04.27 1.5-.06.44-.26.79-.6 1.05-.34.24-.78.36-1.32.36-.68 0-1.21-.16-1.59-.48-.36-.32-.68-.82-.96-1.5l-1.8-4.17 1.86 1.29h-12.51l1.86-1.29-1.77 4.17c-.3.7-.62 1.21-.96 1.53-.32.3-.8.45-1.44.45Zm8.52-16.47-3.84 9.15-.81-1.17h9.39l-.81 1.17-3.87-9.15h-.06Zm23.23 16.53c-2.28 0-4.23-.45-5.85-1.35a9.347 9.347 0 0 1-3.75-3.78c-.86-1.64-1.29-3.57-1.29-5.79 0-1.66.24-3.15.72-4.47.5-1.34 1.22-2.48 2.16-3.42.94-.96 2.08-1.7 3.42-2.22 1.36-.52 2.89-.78 4.59-.78 1 0 2.01.13 3.03.39 1.04.24 1.94.59 2.7 1.05.5.28.84.63 1.02 1.05.18.42.23.84.15 1.26-.06.42-.23.78-.51 1.08-.26.3-.59.49-.99.57-.4.08-.85-.01-1.35-.27-.6-.36-1.23-.62-1.89-.78-.66-.16-1.33-.24-2.01-.24-1.34 0-2.47.27-3.39.81-.9.52-1.58 1.28-2.04 2.28-.46 1-.69 2.23-.69 3.69 0 1.44.23 2.67.69 3.69.46 1.02 1.14 1.8 2.04 2.34.92.52 2.05.78 3.39.78.64 0 1.29-.08 1.95-.24.68-.16 1.33-.41 1.95-.75.52-.26.98-.35 1.38-.27.42.06.76.24 1.02.54.28.28.45.62.51 1.02.08.4.04.8-.12 1.2-.16.4-.46.74-.9 1.02-.74.5-1.65.89-2.73 1.17-1.08.28-2.15.42-3.21.42Zm12.588-.06c-.76 0-1.34-.21-1.74-.63-.4-.42-.6-1.01-.6-1.77V10.98c0-.76.2-1.35.6-1.77.4-.42.98-.63 1.74-.63.74 0 1.31.21 1.71.63.4.42.6 1.01.6 1.77v6.36h9.84v-6.36c0-.76.2-1.35.6-1.77.4-.42.97-.63 1.71-.63.76 0 1.34.21 1.74.63.4.42.6 1.01.6 1.77v16.89c0 .76-.2 1.35-.6 1.77-.4.42-.98.63-1.74.63-.74 0-1.31-.21-1.71-.63-.4-.42-.6-1.01-.6-1.77v-6.66h-9.84v6.66c0 .76-.2 1.35-.6 1.77-.38.42-.95.63-1.71.63Zm23.438-.27c-.76 0-1.35-.21-1.77-.63-.4-.42-.6-1-.6-1.74V11.16c0-.78.2-1.37.6-1.77.4-.4.98-.6 1.74-.6.74 0 1.31.2 1.71.6.4.4.6.99.6 1.77v14.91h8.04c.64 0 1.13.17 1.47.51.36.34.54.82.54 1.44 0 .64-.18 1.13-.54 1.47-.34.34-.83.51-1.47.51h-10.32Zm15.046.27c-.56 0-1.02-.13-1.38-.39a1.77 1.77 0 0 1-.66-1.05c-.08-.44.01-.93.27-1.47l7.68-16.83c.32-.68.7-1.17 1.14-1.47.44-.32.95-.48 1.53-.48.58 0 1.09.16 1.53.48.44.3.81.79 1.11 1.47l7.74 16.83c.26.54.35 1.04.27 1.5-.06.44-.26.79-.6 1.05-.34.24-.78.36-1.32.36-.68 0-1.21-.16-1.59-.48-.36-.32-.68-.82-.96-1.5l-1.8-4.17 1.86 1.29h-12.51l1.86-1.29-1.77 4.17c-.3.7-.62 1.21-.96 1.53-.32.3-.8.45-1.44.45Zm8.52-16.47-3.84 9.15-.81-1.17h9.39l-.81 1.17-3.87-9.15h-.06Zm15.628 16.47c-.7 0-1.24-.19-1.62-.57-.36-.4-.54-.96-.54-1.68v-17.1c0-.76.18-1.34.54-1.74.38-.4.88-.6 1.5-.6.54 0 .95.11 1.23.33.3.2.64.54 1.02 1.02l10.53 13.41h-.81V10.8c0-.7.18-1.24.54-1.62.38-.4.92-.6 1.62-.6.7 0 1.23.2 1.59.6.38.38.57.92.57 1.62v17.31c0 .66-.17 1.19-.51 1.59-.34.38-.8.57-1.38.57-.56 0-1.01-.11-1.35-.33-.32-.22-.67-.57-1.05-1.05l-10.5-13.41h.78v12.54c0 .72-.18 1.28-.54 1.68-.36.38-.9.57-1.62.57ZM190.23 30c-.78 0-1.38-.21-1.8-.63-.42-.42-.63-1.02-.63-1.8V11.28c0-.78.21-1.38.63-1.8.42-.42 1.02-.63 1.8-.63h5.85c3.62 0 6.41.92 8.37 2.76 1.98 1.82 2.97 4.42 2.97 7.8 0 1.7-.26 3.21-.78 4.53-.5 1.3-1.23 2.4-2.19 3.3-.96.9-2.14 1.59-3.54 2.07-1.4.46-3.01.69-4.83.69h-5.85Zm2.22-3.81h3.36c1.14 0 2.13-.14 2.97-.42.84-.28 1.54-.7 2.1-1.26s.98-1.26 1.26-2.1c.28-.86.42-1.86.42-3 0-2.28-.57-3.97-1.71-5.07-1.12-1.12-2.8-1.68-5.04-1.68h-3.36v13.53Z"/>
  <path stroke="#49D04E" stroke-linecap="round" stroke-width="4" d="m210.761 29.155 15-22M2 29l7.5-11L17 7"/>
</svg>
